<svg width="233" height="40" viewBox="0 0 233 40" fill="none" xmlns="http://www.w3.org/2000/svg">
<g clip-path="url(#clip0_20784_1508)">
<path fill-rule="evenodd" clip-rule="evenodd" d="M19.1384 37.7494C28.865 37.7494 36.7161 29.8547 36.7161 20.1717C36.7161 10.445 28.865 2.55031 19.1384 2.59393C9.45539 2.59393 1.56067 10.445 1.56067 20.1717C1.56067 25.0684 3.56843 29.5077 6.81118 32.7L6.79473 32.777L6.86454 32.7524C10.0296 35.842 14.3574 37.7494 19.1384 37.7494ZM6.86454 32.7524L35.3204 22.7014L16.4778 26.5834L28.2544 16.6823L13.948 25.1004L22.9767 11.6227L11.549 23.7483L12.465 12.3642L6.83835 14.6759L10.7203 14.4142L6.81118 32.7C6.82893 32.7175 6.84672 32.735 6.86454 32.7524Z" fill="white"/>
<path d="M55.8642 14.5016L54.6865 19.4739H61.2291C62.2759 19.4303 62.8865 19.3867 63.061 19.3867C63.4535 19.3431 63.9333 19.2122 64.5004 19.0378L63.4535 23.3559C63.0174 23.1814 62.6684 23.0506 62.4067 23.0069C62.145 22.9633 61.6652 22.9197 61.0546 22.9197H53.9014L52.3748 29.2442C52.2439 29.7676 52.2003 30.3346 52.2003 30.9017C52.2003 31.2506 52.2439 31.5995 52.3748 31.9921H43.6949C43.9566 31.5995 44.1311 31.2942 44.2184 31.1197C44.5237 30.5527 44.829 29.6804 45.0907 28.4155L48.5801 13.7601C48.7109 13.2367 48.7545 12.7133 48.7545 12.1026C48.7545 11.7973 48.7109 11.4048 48.5801 11.0122H65.8089L65.3727 15.1122C65.0674 14.8505 64.6748 14.6761 64.195 14.5888C63.7589 14.5016 63.1482 14.5016 62.4067 14.5016H55.8642Z" fill="white"/>
<path d="M74.794 14.0654L73.7472 18.5144H79.9845C80.6387 18.5144 81.1621 18.4271 81.6419 18.2527L80.7696 21.9165C80.3334 21.6548 79.6791 21.524 78.8068 21.524H73.0057L71.8717 26.2782H78.4579C79.1121 26.2782 79.7228 26.1474 80.2462 25.8857L79.0249 29.2442H64.2386C64.4567 28.8953 64.5876 28.6336 64.6748 28.4591C64.9365 27.9793 65.1982 27.1942 65.4599 26.1038L68.4695 13.4112C68.5568 12.975 68.644 12.4952 68.644 11.9718C68.644 11.7101 68.6004 11.3611 68.4695 11.0122H83.3866L82.9941 14.458C82.6451 14.2399 82.3398 14.1526 82.1217 14.0654C81.86 14.0218 81.4674 13.9782 80.9877 13.9782H74.794V14.0654Z" fill="white"/>
<path d="M99.0451 11.0557L101.967 26.2781C102.142 27.0632 102.273 27.6738 102.447 28.1536C102.578 28.5462 102.84 28.8951 103.145 29.2877H95.2504C95.5121 28.7206 95.643 28.2845 95.643 27.8919C95.643 27.4557 95.5994 26.8887 95.4685 26.2345L95.1196 24.3589H87.2685L85.3493 27.4121C85.0004 27.9791 84.8259 28.4589 84.8259 28.8515C84.8259 28.9387 84.8259 29.1132 84.8695 29.2877H80.377C81.0312 28.7206 81.7291 27.8483 82.4706 26.7142L91.543 12.1025C91.3249 11.7972 91.1068 11.5791 90.9323 11.4918C90.8015 11.361 90.5398 11.2301 90.1472 11.0993H99.0451V11.0557ZM94.5962 21.4802L93.2876 14.5014L89.0132 21.4802H94.5962Z" fill="white"/>
<path d="M124.212 11.0558L123.863 14.8069C123.514 14.5452 123.209 14.3271 122.904 14.2399C122.468 14.109 121.901 14.0218 121.29 14.0218H115.402C115.053 14.0218 114.791 14.0654 114.616 14.109C114.311 14.1963 114.093 14.5452 113.962 15.0686C113.831 15.592 113.744 15.941 113.744 16.0718C113.744 16.508 114.093 16.7261 114.747 16.7261H119.851C120.723 16.7261 121.377 16.9005 121.77 17.2931C122.293 17.8165 122.555 18.4271 122.555 19.1686C122.555 19.5176 122.468 19.9974 122.337 20.608L121.246 25.2314C121.028 26.191 120.81 26.8453 120.636 27.1942C120.33 27.8485 119.851 28.3719 119.065 28.7644C118.586 29.0261 117.844 29.157 116.841 29.2006H115.62H104.541L105.021 25.5367C105.37 25.7548 105.631 25.9293 105.893 26.0165C106.242 26.1474 106.591 26.191 106.896 26.2346C106.94 26.2346 107.289 26.2346 107.987 26.2346H113.439C113.962 26.2346 114.311 26.191 114.442 26.0601C114.616 25.9293 114.791 25.5804 114.878 25.057C114.965 24.6644 115.009 24.4027 115.009 24.2282C115.009 23.7921 114.704 23.574 114.093 23.574H113.395H109.339C108.423 23.574 107.725 23.4431 107.245 23.1378C106.547 22.7016 106.198 22.0474 106.198 21.0878C106.198 20.608 106.329 19.8665 106.547 18.9505L107.55 14.7633C107.681 14.109 107.856 13.6292 107.987 13.3239C108.466 12.408 109.208 11.7537 110.168 11.3175C110.691 11.0994 111.432 11.0122 112.392 11.0122H124.212V11.0558Z" fill="white"/>
<path d="M135.509 19.0811L139.958 13.3236C140.394 12.7566 140.656 12.2768 140.787 11.8842C140.83 11.7098 140.918 11.4481 141.005 11.0555H145.454C144.887 11.5789 144.451 12.0587 144.102 12.4076C143.84 12.713 143.404 13.28 142.793 14.1087L136.381 22.5268L135.335 26.8013C135.247 27.2811 135.16 27.7609 135.16 28.2407C135.16 28.5024 135.204 28.8077 135.335 29.2003H127.832C128.05 28.8513 128.181 28.5896 128.269 28.4151C128.53 27.9354 128.792 27.1502 129.054 26.0598L129.926 22.396L127.353 13.7598C127.047 12.8002 126.568 11.8842 125.87 10.9683H133.895C133.721 11.3608 133.634 11.7534 133.634 12.1023C133.634 12.6693 133.721 13.3236 133.939 13.9778L135.509 19.0811Z" fill="white"/>
<path d="M161.505 11.0557L161.156 14.5887C160.72 14.3706 160.415 14.2397 160.197 14.1961C159.891 14.1089 159.455 14.0653 158.888 14.0653H154.439C153.698 14.0653 153.174 14.1525 153 14.2833C152.782 14.4578 152.564 14.8504 152.433 15.4174L150.252 24.577C150.165 24.9696 150.121 25.2749 150.121 25.4057C150.121 25.7983 150.295 26.06 150.688 26.1472C150.862 26.1908 151.211 26.2345 151.735 26.2345H156.009C157.1 26.2345 157.928 26.0164 158.583 25.6238L157.231 29.244H148.594C147.329 29.2004 146.544 29.2004 146.239 29.1568C145.934 29.1132 145.628 29.026 145.323 28.8951C144.756 28.6334 144.276 28.1972 143.971 27.6302C143.709 27.1068 143.578 26.5834 143.578 26.06C143.578 25.7111 143.666 25.1876 143.84 24.4025L146.108 14.8067C146.457 13.3674 147.155 12.3206 148.158 11.7535C148.9 11.3174 149.772 11.0993 150.732 11.0993C150.95 11.0993 151.386 11.0993 151.996 11.0993H161.505V11.0557Z" fill="white"/>
<path d="M169.269 11.0556H177.425C178.123 11.0556 178.69 11.0993 179.126 11.1865C180.086 11.361 180.827 11.928 181.351 12.8003C181.7 13.411 181.874 14.0652 181.874 14.7631C181.874 15.1993 181.787 15.7227 181.656 16.3333L179.475 25.3185C179.301 26.1036 179.083 26.6706 178.908 27.0632C178.603 27.6738 178.123 28.1536 177.556 28.5461C176.945 28.9823 175.855 29.244 174.285 29.244H165.736C164.951 29.244 164.34 29.2004 163.948 29.1568C163.075 29.0259 162.377 28.5025 161.854 27.5866C161.549 27.0195 161.418 26.4089 161.418 25.711C161.418 25.3185 161.505 24.7514 161.723 23.9663L163.86 15.0248C164.078 14.1525 164.296 13.4982 164.602 13.0184C165.3 11.7099 166.87 11.012 169.269 11.0556ZM170.054 15.8099L167.96 24.6206C167.829 25.144 167.786 25.4057 167.786 25.4929C167.786 25.7983 167.917 26.0163 168.222 26.1472C168.396 26.2344 168.745 26.278 169.225 26.278H171.624C172.148 26.278 172.497 26.1908 172.671 26.06C172.845 25.8855 172.976 25.4057 173.151 24.7078L175.244 15.8972C175.288 15.6791 175.332 15.5046 175.375 15.4174C175.419 15.1993 175.462 15.0248 175.462 14.8503C175.462 14.3269 175.026 14.1088 174.241 14.1088H171.886C171.275 14.1088 170.883 14.1961 170.665 14.3705C170.446 14.545 170.272 15.0248 170.054 15.8099Z" fill="white"/>
<path d="M194.698 21.0005L199.975 11.0558H208.917C208.699 11.4048 208.568 11.6665 208.481 11.8409C208.219 12.3207 207.957 13.1058 207.696 14.1963L204.686 26.8889C204.555 27.3687 204.512 27.8485 204.512 28.3282C204.512 28.5899 204.555 28.9389 204.686 29.2878H197.184C197.402 28.9389 197.533 28.6772 197.62 28.5027C197.882 28.0229 198.144 27.2378 198.405 26.1474L201.066 14.8941L193.433 29.2442H188.853L187.981 14.9378L185.146 26.8453C185.015 27.325 184.971 27.8048 184.971 28.2846C184.971 28.5463 185.015 28.8953 185.146 29.2442H181.307C181.525 28.8953 181.656 28.6336 181.743 28.4591C182.005 27.9793 182.267 27.1942 182.529 26.1038L185.538 13.4112C185.625 12.975 185.713 12.4952 185.713 11.9718C185.713 11.7101 185.669 11.3611 185.538 11.0122H194L194.698 21.0005Z" fill="white"/>
<path d="M214.805 26.7578H212.014C215.241 22.3961 215.241 17.9908 212.014 13.5854H214.805C217.553 17.9908 217.553 22.3525 214.805 26.7578Z" fill="white"/>
<path d="M221.61 29.2442H217.771C222.22 23.1814 222.22 17.1186 217.771 11.0122H221.61C225.404 17.1622 225.404 23.225 221.61 29.2442Z" fill="white"/>
<path d="M228.501 32.5589H223.267C229.33 24.3153 229.33 16.0716 223.267 7.74072H228.501C233.648 16.0716 233.648 24.3153 228.501 32.5589Z" fill="white"/>
</g>
<defs>
<clipPath id="clip0_20784_1508">
<rect width="232" height="38.514" fill="white" transform="translate(0.949951 0.893066)"/>
</clipPath>
</defs>
</svg>
