<svg width="148" height="118" viewBox="0 0 148 118" fill="none" xmlns="http://www.w3.org/2000/svg">
<g clip-path="url(#clip0_20784_1490)">
<path d="M29.3365 117.261C28.8269 114.847 29.8314 113.639 32.35 113.635C32.8351 113.635 33.3251 113.635 33.8102 113.635C35.1577 113.635 36.3974 113.258 36.3925 111.719C36.3925 109.867 34.8098 110.774 33.9915 110.754C28.5427 110.622 26.4259 108.51 26.4259 102.997C26.4259 102.189 26.4259 101.375 26.4259 100.567C26.4357 95.7601 28.7583 93.4228 33.5505 93.4081C35.4174 93.4081 37.2843 93.4669 39.1463 93.3836C40.3615 93.3297 40.8809 93.6482 40.8662 94.981C40.8025 100.327 40.8319 105.678 40.8417 111.024C40.8466 114.052 39.0728 115.865 36.6571 117.261H29.3365ZM36.4905 102.091C36.4905 101.522 36.4905 100.959 36.4905 100.391C36.4905 96.8822 36.3484 96.7842 32.8253 97.1713C31.4435 97.3232 30.7869 98.019 30.782 99.3665C30.7722 101.15 30.782 102.934 30.782 104.712C30.782 106.222 31.5905 106.863 33.036 106.991C36.466 107.3 36.4905 107.295 36.4905 103.791C36.4905 103.223 36.4905 102.654 36.4905 102.091Z" fill="white"/>
<path d="M147.446 103.61C144.682 103.629 141.914 103.6 139.155 103.693C138.366 103.717 137.034 103.022 137.087 104.805C137.132 106.202 137.852 106.927 139.185 106.971C141.135 107.03 143.09 106.981 145.04 106.991C145.442 106.991 145.839 107.049 146.246 107.084C145.811 109.498 144.421 110.705 142.076 110.705C140.856 110.705 139.631 110.768 138.42 110.656C135.01 110.327 132.829 107.961 132.731 104.521C132.682 102.816 132.677 101.106 132.741 99.4054C132.869 95.9607 135.353 93.545 138.827 93.4078C143.908 93.2069 145.564 94.1379 147.446 98.2539V103.614V103.61ZM140.052 100.116C140.983 99.425 142.84 101.003 142.982 99.0575C143.119 97.1906 141.434 97.1465 139.988 97.1612C138.636 97.1759 137.063 97.1759 137.176 98.9693C137.303 101.003 139.145 99.4299 140.052 100.116Z" fill="white"/>
<path d="M47.3832 65.5662C29.5913 49.6608 32.8155 19.565 53.6748 6.86905C55.9582 5.47745 58.3053 4.19856 60.9513 3.61546C65.1702 3.58116 69.3744 3.45376 73.1866 5.84985C80.9678 10.7401 83.6971 20.3294 79.5958 28.5663C78.5521 30.6586 77.1115 32.6627 77.1997 35.1078C77.2879 37.5823 76.1609 38.6113 73.8628 39.3365C67.4781 41.3553 61.6128 44.3835 56.752 49.1365C52.0578 53.7278 49.0835 59.2746 47.3832 65.5564V65.5662Z" fill="#DCDCDC"/>
<path d="M47.3832 65.5659C49.0835 59.2841 52.0578 53.7373 56.752 49.146C61.6128 44.3881 67.4781 41.3599 73.8628 39.346C76.156 38.6208 77.2879 37.5918 77.1997 35.1173C77.1115 32.6722 78.557 30.6681 79.5958 28.5758C83.702 20.3389 80.9678 10.7496 73.1866 5.85944C69.3744 3.46334 65.1702 3.59564 60.9513 3.62504C69.688 0.229341 78.3757 0.763441 87.0193 3.96804C89.0773 4.73244 91.0128 5.74184 92.8944 6.87864C98.4657 10.24 101.347 15.2086 100.935 21.6423C100.509 28.3504 96.5988 32.7947 90.513 35.3917C86.9654 36.9058 83.1385 37.2684 79.3704 37.7633C77.3369 38.0328 76.8714 38.8903 77.136 40.8013C78.1405 48.1415 84.1675 53.6981 92.8405 55.124C92.6886 56.0844 91.8262 56.5597 91.3068 57.2653C84.5595 66.4724 75.4357 71.0882 64.0285 71.5047C60.5005 71.6321 57.1489 70.6325 53.6846 70.4904C51.3228 69.1821 49.206 67.5602 47.3783 65.5708L47.3832 65.5659Z" fill="white"/>
<path d="M53.6896 70.4854C57.1539 70.6324 60.5006 71.6319 64.0335 71.4996C75.4358 71.0831 84.5645 66.4673 91.3118 57.2602C91.8263 56.5546 92.6887 56.0843 92.8455 55.119C92.9974 55.0406 93.1493 54.9621 93.2963 54.8788C97.7945 55.2316 101.749 53.9283 105.193 51.0226C107.06 49.4448 108.398 47.4161 109.951 45.5688C108.261 55.6383 102.979 63.4588 94.7712 69.329C82.7074 77.9579 65.9739 78.3694 53.6945 70.4854H53.6896Z" fill="#DCDCDC"/>
<path d="M60.1428 99.2096C60.1428 95.9609 60.2016 92.7122 60.1134 89.4635C60.0791 88.165 60.5054 87.7779 61.7647 87.8171C64.2833 87.8955 66.8068 87.773 69.3254 87.8612C73.3728 88.0033 76.1511 90.713 76.3324 94.7898C76.4598 97.7053 76.4549 100.64 76.3471 103.556C76.2001 107.638 73.5247 110.411 69.4675 110.651C66.8754 110.803 64.2637 110.636 61.6667 110.725C60.28 110.769 60.0889 110.127 60.1134 108.951C60.182 105.702 60.1379 102.453 60.1379 99.2047L60.1428 99.2096ZM64.5038 99.2145C64.5038 101.326 64.4989 103.438 64.5038 105.55C64.5038 106.021 64.3666 106.56 64.837 106.898C67.042 108.485 71.7215 106.32 71.9175 103.546C72.0645 101.444 71.8587 99.3174 71.991 97.2153C72.3389 91.7518 69.8007 91.3598 65.8709 91.4823C64.8174 91.5166 64.445 91.8106 64.4793 92.8837C64.5479 94.9907 64.4989 97.1075 64.4989 99.2145H64.5038Z" fill="white"/>
<path d="M1.05864 99.2684C1.05864 97.7298 0.999844 96.1863 1.07334 94.6477C1.24484 90.8796 3.95944 88.067 7.70794 87.8857C10.3833 87.7583 13.0685 87.9249 15.7439 87.8122C17.3168 87.7485 17.1502 88.6795 17.1404 89.6693C17.1306 90.6346 17.3756 91.6293 15.7635 91.5362C13.6614 91.4186 11.5397 91.4578 9.43274 91.5215C6.74754 91.5999 5.45884 92.9327 5.41964 95.6326C5.38044 98.1463 5.40494 100.66 5.41474 103.174C5.41474 104.673 6.02234 105.849 7.39434 106.53C9.00644 107.329 10.741 106.996 12.4168 106.888C12.9117 106.858 12.7696 106.07 12.7745 105.599C12.7892 104.222 12.6912 102.836 12.8137 101.468C12.8823 100.738 12.2208 99.19 13.4703 99.4301C14.7394 99.6702 17.0571 98.9793 17.1159 101.508C17.1796 104.1 17.0865 106.697 17.1502 109.294C17.1747 110.333 16.8513 110.749 15.7831 110.725C13.1077 110.671 10.4176 110.823 7.74714 110.646C3.71444 110.377 1.14194 107.495 1.06354 103.409C1.03414 102.032 1.06354 100.65 1.06354 99.2733L1.05864 99.2684Z" fill="white"/>
<path d="M109.951 45.569C108.403 47.4163 107.065 49.4498 105.193 51.0227C101.749 53.9284 97.7943 55.2318 93.2961 54.879C95.5403 50.5327 97.1524 46.0051 97.76 41.1002C98.1814 37.6849 101.283 35.5191 104.801 35.8033C108.03 36.063 110.485 38.8266 110.431 42.2664C110.412 43.3689 110.627 44.5449 109.951 45.569Z" fill="white"/>
<path d="M57.2029 102.179C57.2029 104.448 57.1539 106.721 57.2225 108.99C57.2568 110.166 57.0706 110.803 55.6594 110.735C53.3907 110.622 51.1122 110.798 48.8435 110.671C45.2763 110.47 42.9978 108.093 42.8802 104.57C42.8214 102.87 42.8214 101.165 42.8802 99.4646C43.0125 95.8925 45.5066 93.4621 49.1277 93.418C51.71 93.3886 55.0812 92.5262 56.6639 93.8051C58.3201 95.1477 57.0118 98.6561 57.1882 101.209C57.2127 101.532 57.1882 101.856 57.1882 102.179H57.2029ZM52.8321 101.9C52.8321 97.1322 52.8272 97.2498 50.2694 97.1371C47.9027 97.0293 47.0501 98.024 47.2216 100.288C47.3294 101.733 47.2461 103.189 47.2412 104.639C47.2412 106.089 47.9223 106.844 49.3972 106.996C52.7733 107.339 52.8321 107.309 52.8321 103.835C52.8321 103.189 52.8321 102.547 52.8321 101.9Z" fill="white"/>
<path d="M87.813 103.663C86.8379 103.663 85.8579 103.59 84.8926 103.688C84.0841 103.771 82.7366 103.056 82.8052 104.8C82.8591 106.128 83.5402 106.942 84.9122 106.976C86.6958 107.02 88.4843 106.927 90.2679 107.025C90.8216 107.054 92.027 106.437 91.8653 107.696C91.7281 108.769 91.9437 110.509 90.3757 110.621C87.8032 110.803 85.1866 110.984 82.619 110.376C82.3887 110.323 82.1682 110.195 81.9526 110.087C78.16 108.171 77.8513 104.972 78.6598 98.1411C79.0175 95.1129 81.7468 93.6282 85.3287 93.3587C90.8314 92.9471 93.8106 96.6515 93.2324 102.659C93.1442 103.58 92.6689 103.678 91.9535 103.673C90.5717 103.659 89.1948 103.673 87.813 103.673V103.663ZM85.7501 100.248C86.5488 99.1701 88.5774 101.155 88.7293 99.0231C88.8518 97.2346 87.176 97.1415 85.7256 97.1611C84.3928 97.1807 82.8689 97.1464 82.8836 98.9055C82.8983 101.076 84.7897 99.3808 85.7501 100.248Z" fill="white"/>
<path d="M102.449 106.461C103.449 102.806 104.453 99.1552 105.453 95.4998C105.943 93.7113 108.29 92.6284 109.863 93.4418C110.539 93.7946 110.147 94.2209 110.035 94.6423C108.849 99.0082 107.668 103.369 106.477 107.735C105.894 109.867 104.355 110.685 102.288 110.695C100.225 110.704 98.6323 109.94 98.0394 107.809C96.8242 103.452 95.6727 99.0817 94.4183 94.7354C94.0655 93.5104 94.5751 93.4663 95.5649 93.3683C97.5739 93.1723 98.7744 93.5251 99.2203 95.9065C99.8916 99.4541 101.063 102.909 102.018 106.397C102.16 106.417 102.302 106.441 102.444 106.461H102.449Z" fill="white"/>
<path d="M131.492 107.152C130.472 108.412 131.56 110.651 128.885 110.739C123.461 110.911 120.491 109.681 119.678 106.324C119.006 103.551 119.07 100.665 119.643 97.8718C120.138 95.4561 122.368 93.6137 124.862 93.452C126.959 93.3148 129.071 93.4226 131.198 93.4226C130.822 95.9085 129.455 97.1597 127.096 97.176C124.083 97.1956 123.701 97.5435 123.701 100.498C123.701 107.29 123.039 107.128 130.08 106.996C130.463 106.991 130.845 107.079 131.492 107.157V107.152Z" fill="white"/>
<path d="M112.617 101.91C112.617 99.7192 112.563 97.5289 112.651 95.3435C112.676 94.731 112.049 93.3345 113.435 93.653C114.67 93.9323 116.821 93.4619 116.904 95.417C117.105 100.111 116.983 104.82 116.963 109.524C116.958 111.381 115.498 110.602 114.621 110.671C113.768 110.734 112.558 111.146 112.602 109.456C112.666 106.942 112.617 104.428 112.617 101.914V101.91Z" fill="white"/>
<path d="M19.7031 101.904C19.7031 99.7189 19.659 97.5335 19.7276 95.353C19.7472 94.7062 19.2278 93.3685 20.5067 93.6282C21.7513 93.883 23.9269 93.4812 24.02 95.3089C24.265 100.067 24.1376 104.849 24.0886 109.622C24.069 111.479 22.5549 110.563 21.7023 110.666C20.8399 110.768 19.6541 111.077 19.6884 109.431C19.7423 106.922 19.7031 104.418 19.7031 101.909V101.904Z" fill="white"/>
<path d="M114.832 91.4332C112.994 91.9134 112.553 91.1784 112.553 89.4683C112.553 87.8072 112.94 87.2633 114.69 87.2731C116.444 87.2829 117.081 87.6259 117.047 89.5369C117.012 91.3695 116.38 91.8546 114.832 91.4283V91.4332Z" fill="white"/>
<path d="M24.0249 89.2918C24.5051 91.1489 23.7456 91.6095 22.0649 91.5556C20.5263 91.5066 19.6002 91.5066 19.6149 89.4486C19.6247 87.4641 20.4038 87.2583 22.0257 87.3024C23.5496 87.3416 24.6717 87.4494 24.0249 89.2918Z" fill="white"/>
</g>
<defs>
<clipPath id="clip0_20784_1490">
<rect width="147" height="116.62" fill="white" transform="translate(0.5 0.689941)"/>
</clipPath>
</defs>
</svg>
