<svg width="17" height="16" viewBox="0 0 17 16" fill="none" xmlns="http://www.w3.org/2000/svg">
<path fill-rule="evenodd" clip-rule="evenodd" d="M1.5 8.00002C1.5 7.86741 1.55268 7.74024 1.64645 7.64647C1.74021 7.5527 1.86739 7.50002 2 7.50002H13.793L10.646 4.35402C10.5521 4.26013 10.4994 4.1328 10.4994 4.00002C10.4994 3.86725 10.5521 3.73991 10.646 3.64602C10.7399 3.55213 10.8672 3.49939 11 3.49939C11.1328 3.49939 11.2601 3.55213 11.354 3.64602L15.354 7.64602C15.4006 7.69247 15.4375 7.74764 15.4627 7.80839C15.4879 7.86913 15.5009 7.93425 15.5009 8.00002C15.5009 8.06579 15.4879 8.13091 15.4627 8.19165C15.4375 8.2524 15.4006 8.30758 15.354 8.35402L11.354 12.354C11.2601 12.4479 11.1328 12.5007 11 12.5007C10.8672 12.5007 10.7399 12.4479 10.646 12.354C10.5521 12.2601 10.4994 12.1328 10.4994 12C10.4994 11.8672 10.5521 11.7399 10.646 11.646L13.793 8.50002H2C1.86739 8.50002 1.74021 8.44734 1.64645 8.35357C1.55268 8.25981 1.5 8.13263 1.5 8.00002Z" fill="#3a6f9e"/>
</svg>
